<?xml version="1.0" standalone="no"?>
<!DOCTYPE svg PUBLIC "-//W3C//DTD SVG 20010904//EN"
 "http://www.w3.org/TR/2001/REC-SVG-20010904/DTD/svg10.dtd">
<svg version="1.0" xmlns="http://www.w3.org/2000/svg"
 width="700.000000pt" height="700.000000pt" viewBox="0 0 700.000000 700.000000"
 preserveAspectRatio="xMidYMid meet">
<metadata>
Created by potrace 1.14, written by Peter Selinger 2001-2017
</metadata>
<g transform="translate(0.000000,700.000000) scale(0.100000,-0.100000)"
fill="#000000" stroke="none">
<path d="M2915 5930 l-210 -5 2 -27 c1 -19 -3 -28 -12 -28 -8 0 -16 -6 -16
-12 -1 -7 -2 -179 -3 -383 l-1 -370 -813 -3 -812 -2 0 -50 c0 -49 -1 -50 -30
-50 l-30 0 0 -90 0 -90 -37 -1 c-21 -1 -71 0 -110 1 l-73 1 0 -50 c0 -51 -8
-59 -53 -52 -4 0 -7 -136 -7 -303 l0 -304 681 0 c374 0 683 -2 686 -6 8 -7 6
-806 -2 -814 -3 -3 -101 -7 -218 -8 -117 -1 -215 -2 -218 -3 -3 0 -4 -21 -3
-46 2 -45 -1 -49 -37 -46 -20 2 -25 -23 -24 -105 l2 -62 -105 2 c-57 0 -108
-2 -114 -5 -5 -4 -9 -22 -8 -40 3 -51 1 -60 -12 -58 -45 5 -45 4 -44 -118 l1
-118 120 0 120 0 -1 48 c0 46 1 47 31 47 l31 0 -1 80 c0 47 4 80 10 81 5 0
176 2 378 2 237 1 371 -2 375 -8 4 -5 7 -47 7 -92 l0 -82 -190 0 c-104 0 -214
0 -243 0 l-54 -1 4 -47 c3 -47 2 -48 -28 -51 l-31 -3 1 -172 c1 -195 -8 -311
-28 -409 -20 -89 -29 -105 -75 -119 -107 -32 -255 52 -462 262 l-116 118 -268
-2 -269 -2 -56 -80 c-252 -359 -399 -565 -423 -592 -16 -18 -26 -36 -23 -41 3
-5 -10 -28 -30 -50 -28 -34 -33 -45 -25 -60 11 -20 142 -141 191 -177 15 -11
67 -51 115 -89 110 -87 327 -234 380 -257 66 -29 453 -111 555 -118 128 -8
1002 -7 1065 2 325 45 659 253 842 522 68 101 170 282 193 345 l22 60 992 2
991 3 78 23 c271 79 422 145 597 260 191 126 310 263 403 462 57 121 77 205
84 353 l6 127 -29 1 c-16 1 -113 0 -215 0 l-186 -2 1 141 0 140 378 0 378 0 0
30 c0 20 5 30 15 30 12 0 15 18 15 100 l0 100 -72 1 c-154 2 -137 -5 -245 99
-192 187 -323 276 -477 325 -61 20 -65 23 -41 29 42 11 197 90 263 135 116 78
211 195 280 342 152 327 68 808 -187 1066 -167 170 -392 269 -721 318 -24 4
-55 12 -70 20 -14 7 -61 16 -105 20 -89 9 -2302 13 -2630 5z m1866 -905 c117
-39 193 -114 229 -226 33 -100 31 -240 -4 -307 -19 -37 -94 -106 -143 -130
-58 -30 -169 -60 -254 -70 -91 -10 -290 -5 -302 7 -4 4 -8 119 -8 255 l0 246
-259 0 -260 0 -1 38 c-5 210 -5 201 16 204 11 2 225 2 476 2 409 -1 461 -3
510 -19z m-481 -1530 c255 -21 462 -135 538 -297 54 -113 66 -253 28 -325 -41
-80 -180 -158 -351 -198 -102 -23 -174 -29 -355 -30 l-165 0 0 325 c0 179 1
333 3 343 3 9 12 16 21 15 14 -3 16 10 19 84 l3 87 57 3 c59 4 78 3 202 -7z"/>
<path d="M6700 4104 c0 -26 -4 -32 -15 -28 -13 5 -15 -11 -15 -108 l0 -114
110 0 110 0 0 27 c0 15 7 29 15 33 13 5 15 24 13 113 l-3 108 -107 1 -108 2 0
-34z"/>
<path d="M1050 3880 c0 -49 -1 -50 -30 -50 l-30 0 0 -120 0 -121 122 3 122 3
0 45 c1 41 3 45 30 50 l29 5 -1 98 c0 53 -1 106 -1 117 -1 19 -8 20 -121 20
l-120 0 0 -50z"/>
<path d="M3537 1257 c-2 -7 -3 -29 -2 -49 3 -35 1 -37 -28 -40 l-32 -3 0 -110
c-1 -60 0 -114 2 -120 3 -8 75 -10 206 -6 14 1 18 8 17 29 -5 64 -1 72 29 72
l29 0 -1 120 -1 120 -107 0 c-77 0 -108 -4 -112 -13z"/>
</g>
</svg>
